# xmcd CD database file
#
# Track frame offsets:
#	150
#	36813
#	73030
#	125322
#	167953
#	197883
#	222946
#	256438
#	285003
#
# Disc length: 4121 seconds
#
# Revision: 0
# Processed by: cddbd v1.5.1PL0 Copyright (c) Steve Scherf et al.
# Submitted via: CDex 1.51
#
DISCID=83101709
DTITLE=Palma Rubia - VV Summer Swap
DYEAR=2005
DGENRE=Jazz
TTITLE0=Mix 1
TTITLE1=Mix 2
TTITLE2=Mix 3
TTITLE3=Mix 4
TTITLE4=Mix 5
TTITLE5=Mix 6
TTITLE6=Mix 7
TTITLE7=Mix 8
TTITLE8=Mix 9
EXTD=YEAR: 2005
EXTT0=
EXTT1=
EXTT2=
EXTT3=
EXTT4=
EXTT5=
EXTT6=
EXTT7=
EXTT8=
PLAYORDER=
